# xmcd CD database file
#
# Track frame offsets:
#	150
#	16190
#	31037
#	53338
#	72459
#	96085
#	123173
#	136015
#	161095
#	182633
#	197681
#	216112
#	231479
#	256816
#	275955
#
# Disc length: 4195 seconds
#
# Revision: 1
# Processed by: cddbd v1.5.2PL0 Copyright (c) Steve Scherf et al.
# Submitted via: CDex 1.40Release
#
DISCID=cc10610f
DTITLE=Profil - Live 2008
DYEAR=2008
DGENRE=Country
TTITLE0=Create in me
TTITLE1=Herr, bitte hilf
TTITLE2=Das dein Wort
TTITLE3=Was ist mit mir los
TTITLE4=Gott will mein Herz
TTITLE5=Ganz anders
TTITLE6=More like you
TTITLE7=Auf ewig geborgen
TTITLE8=Autobahn
TTITLE9=When I was hungry
TTITLE10=Mehr Zeit
TTITLE11=Ich lass dich nicht fall`n
TTITLE12=Herr deine Gnade
TTITLE13=My rock
TTITLE14=Lord I lift 
EXTD=YEAR: 2008 ID3G: 2
EXTT0=
EXTT1=
EXTT2=
EXTT3=
EXTT4=
EXTT5=
EXTT6=
EXTT7=
EXTT8=
EXTT9=
EXTT10=
EXTT11=
EXTT12=
EXTT13=
EXTT14=
PLAYORDER=
